<svg id="Layer_1" enable-background="new 0 0 256 256" height="512" viewBox="0 0 256 256" width="512" xmlns="http://www.w3.org/2000/svg"><g id="Layer_76"><g><path d="m56.1 114.9c-4-.7-7.1-3.8-7.9-7.7 0-.1-.1-.2-.2-.1-.1 0-.1.1-.1.1-.8 4-3.9 7-7.9 7.7-.1 0-.2.1-.1.2 0 .1.1.1.1.1 4 .7 7.1 3.8 7.9 7.7 0 .1.1.2.2.1.1 0 .1-.1.1-.1.8-4 3.9-7 7.9-7.7.1 0 .2-.1.1-.2 0 0 0-.1-.1-.1z" fill="#f5c84c"/><circle cx="169.5" cy="24" fill="#b2e26d" r="3"/><circle cx="219.5" cy="137" fill="#ef4460" r="3"/><circle cx="36.5" cy="138" fill="#ef4460" r="3"/><path d="m195.8 38.9h-2.1v-2.1c0-1.5-1.3-2.8-2.8-2.8s-2.8 1.3-2.8 2.8v2.1h-2.1c-1.5 0-2.8 1.3-2.8 2.8s1.3 2.8 2.8 2.8h2.1v2.1c0 1.5 1.3 2.8 2.8 2.8s2.8-1.3 2.8-2.8v-2.1h2.1c1.5 0 2.8-1.3 2.8-2.8 0-1.6-1.3-2.8-2.8-2.8z" fill="#70d6f9"/><path d="m93.8 124.8c-12.2-7.8-19.7-21.1-19.9-35.6v-11.7c-4-.7-7.9-1.6-11.8-2.7 4.5 32.6 10.9 48.7 8.8 64.9l3.4-1.5c4-1.7 8.5-1.4 12.3.8l4-2.1c.7-.5 1.4-1.2 1.8-2 1-1.7 1.4-3.7 1.4-5.7z" fill="#893c1a"/><path d="m146.9 78.3v10.9c-.3 14.2-7.5 27.3-19.3 35.2v5.8c0 1.5.4 3 1.3 4.4.7 1.2 1.7 2.1 2.9 2.8l2.8 1.3c3.6-2 8-2.2 11.8-.5l3.2 1.4c-2.2-16.1 4.2-32.2 8.8-64.7-3.8 1.1-7.7 2-11.6 2.7 0 .2.1.4.1.7z" fill="#893c1a"/><path d="m162.4 151 .4-.2c1.6-.6 2.3-2.4 1.7-4-.3-.8-.9-1.4-1.6-1.7l-16.4-7c-6-2.6-13.1-.5-16.7 5l-5.3 7.9z" fill="#5290db"/><path d="m87 157.7c0-3.7 3-6.7 6.7-6.7h2.5l-5.3-7.9c-3.6-5.5-10.7-7.5-16.7-5l-16.4 7c-1.6.7-2.3 2.5-1.6 4 .3.8.9 1.3 1.7 1.6l29.1 11.6z" fill="#5290db"/><path d="m134.6 138.7-2.8-1.3c-2.6-1.5-4.2-4.2-4.2-7.2v-5.8c-10.7 6.9-23 7-33.8.4v4.4c0 2.8-.9 6.2-3.3 7.6l-4 2.1c1.8 1 3.3 2.5 4.4 4.2l5.3 7.9h28.2l5.3-7.9c1.2-1.8 2.9-3.4 4.9-4.4z" fill="#f2ba94"/><path d="m128.9 134.5c-10.8 8-25.5 8.2-36.5.3-.4.8-1.1 1.5-1.8 2l-4 2.1c1.8 1 3.3 2.5 4.4 4.2l5.3 7.9h28.2l5.3-7.9c1.2-1.9 2.9-3.4 4.9-4.4l-2.8-1.3c-1.3-.7-2.3-1.7-3-2.9z" fill="#818182"/><path d="m110.3 80.5c-12.2.1-24.4-.9-36.5-3v11.7c0 20.1 16.4 40.4 36.5 40.4s36.5-20.4 36.5-40.4v-10.9c0-.3 0-.5-.1-.8-11.9 2.1-24.1 3.1-36.4 3z" fill="#f2ba94"/><path d="m151.5 47.7c.6 2.3 1 4.6 1.2 7 0 6.5-19 11.8-42.4 11.8s-42.4-5.3-42.4-11.8c.2-2.4.6-4.7 1.2-7-15.3 3.4-25.1 8.6-25.1 14.4 0 10.2 29.7 18.4 66.4 18.4s66.4-8.2 66.4-18.4c-.1-5.8-9.9-11-25.3-14.4z" fill="#818182"/><path d="m140.7 12.8c-3.4-8.8-12.6-12.6-20.5-8.9-3.1 1.5-6.4 2.3-9.8 2.3s-6.8-.8-9.8-2.3c-8-3.7-17.2.1-20.7 8.9-7.5 19.1-12.1 38.7-12.1 41.9 0 6.5 19 11.8 42.4 11.8s42.4-5.3 42.4-11.8c.2-3.2-4.4-22.8-11.9-41.9z" fill="#818182"/><path d="m220.7 242.8h-135.5c-1.5 0-2.8 1.2-2.8 2.8 0 4.4 3.5 7.9 7.9 7.9h125.2c4.4 0 7.9-3.5 7.9-7.9.1-1.5-1.2-2.8-2.7-2.8z" fill="#29589f"/><path d="m212.2 151h-118.5c-3.7 0-6.7 3-6.7 6.7v78.6.5c.3 3.4 3.2 6 6.7 6h118.6c3.4 0 6.3-2.5 6.7-6 0-.2 0-.3 0-.5v-78.6c0-3.7-3.1-6.7-6.8-6.7z" fill="#29589f"/><path d="m220.7 242.8h-135.5c-1.5 0-2.8 1.2-2.8 2.8 0 4.4 3.5 7.9 7.9 7.9h125.2c4.4 0 7.9-3.5 7.9-7.9.1-1.5-1.2-2.8-2.7-2.8z" fill="#c7d7e5"/><path d="m212.2 151h-118.5c-3.7 0-6.7 3-6.7 6.7v78.6.5c.3 3.4 3.2 6 6.7 6h118.6c3.4 0 6.3-2.5 6.7-6 0-.2 0-.3 0-.5v-78.6c0-3.7-3.1-6.7-6.8-6.7z" fill="#edf4fc"/><path d="m87 236.9c0-.2 0-.3 0-.5v-74.1l-29.1-11.5c-.8-.3-1.5-1-1.8-1.8l-8 2c-6.1 1.5-10.6 6.9-10.9 13.2l-4.6 72.1c-.2 3.3 2.3 6.2 5.7 6.4h.4 55c-3.5.2-6.4-2.4-6.7-5.8z" fill="#29589f"/><path d="m168.7 199.6c-.6-1.1-.9-2.4-.7-3.6 1.5-8.3-4-16.3-12.3-17.8s-16.3 4-17.8 12.3c-.3 1.8-.3 3.7 0 5.5.2 1.3 0 2.5-.7 3.6-1.4 2.6-.5 5.9 2.1 7.4.1.1.3.1.4.2 1.2.5 2.1 1.6 2.4 2.8v.1c.4 1.8 2.1 3.2 4 3.2h13.6c1.9 0 3.5-1.3 4-3.2.3-1.3 1.2-2.4 2.5-2.9 2.7-1.2 4-4.4 2.8-7.1-.1-.2-.2-.4-.3-.5z" fill="#fc657e"/><path d="m160.7 213.2h-15.3c-1.2 0-2.1.9-2.1 2.1 0 3.4 2.7 6.1 6.1 6.1h7.4c3.4 0 6.1-2.7 6.1-6.1-.1-1.2-1-2.1-2.2-2.1z" fill="#fc657e"/><path d="m110.3 53.2c-19.1 0-35.2-3.5-40.6-8.3-.9 3.2-1.5 6.5-1.9 9.8 0 6.5 19 11.8 42.4 11.8s42.4-5.3 42.4-11.8c-.4-3.3-1-6.6-1.9-9.8-5.2 4.8-21.3 8.3-40.4 8.3z" fill="#5b5d60"/><path d="m160.1 194.6c-2.1 0-3.7 1.7-3.7 3.7v1.8c0 1.6 1.3 3 3 3h.8c2.1 0 3.7-1.7 3.7-3.7v-1c0-2.2-1.7-3.8-3.8-3.8z" fill="#ef4460"/><path d="m145.9 194.6c2.1 0 3.7 1.7 3.7 3.7v1.8c0 1.6-1.3 3-3 3h-.8c-2.1 0-3.7-1.7-3.7-3.7v-1c.1-2.2 1.8-3.8 3.8-3.8z" fill="#ef4460"/><path d="m198.9 79.1c-3.9 0-7.1 3.7-7.1 8.2s3.2 8.2 7.1 8.2 7.1-3.7 7.1-8.2-3.2-8.2-7.1-8.2zm0 11.4c-1 0-2.1-1.3-2.1-3.2s1.1-3.2 2.1-3.2 2.1 1.3 2.1 3.2-1.1 3.3-2.1 3.2z"/><path d="m214.3 95.6c1.4 0 2.5-1.1 2.5-2.5v-11.5c0-1.4-1.1-2.5-2.5-2.5h-3.4c-1.4 0-2.5 1.1-2.5 2.5s1.1 2.5 2.5 2.5h.9v8.9c0 1.4 1.1 2.6 2.5 2.6z"/><path d="m184.6 140.1c1.4 0 2.5-1.1 2.5-2.5v-11.4c0-1.4-1.1-2.5-2.5-2.5h-3.4c-1.4 0-2.5 1.1-2.5 2.5s1.1 2.5 2.5 2.5h.9v8.9c0 1.4 1.1 2.5 2.5 2.5z"/><path d="m198.9 140.1c3.9 0 7.1-3.7 7.1-8.2s-3.2-8.2-7.1-8.2-7.1 3.7-7.1 8.2 3.2 8.2 7.1 8.2zm0-11.4c1 0 2.1 1.3 2.1 3.2s-1.1 3.2-2.1 3.2-2.1-1.3-2.1-3.2 1.1-3.2 2.1-3.2z"/><path d="m191.8 109.6c0-4.5-3.2-8.2-7.1-8.2s-7.1 3.7-7.1 8.2 3.2 8.2 7.1 8.2 7.1-3.6 7.1-8.2zm-7 3.2c-1 0-2.1-1.3-2.1-3.2s1.1-3.2 2.1-3.2 2.1 1.3 2.1 3.2-1.2 3.2-2.1 3.2z"/><path d="m200.1 117.8c1.4 0 2.5-1.1 2.5-2.5v-11.4c0-1.4-1.1-2.5-2.5-2.5h-3.4c-1.4 0-2.5 1.1-2.5 2.5s1.1 2.5 2.5 2.5h.9v8.9c0 1.4 1.2 2.5 2.5 2.5z"/><path d="m214.4 117.8c3.9 0 7.1-3.7 7.1-8.2s-3.2-8.2-7.1-8.2-7.1 3.7-7.1 8.2 3.2 8.2 7.1 8.2zm0-11.4c1 0 2.1 1.3 2.1 3.2s-1.1 3.2-2.1 3.2-2.1-1.3-2.1-3.2 1.1-3.2 2.1-3.2z"/><path d="m170.5 117.8c1.4 0 2.5-1.1 2.5-2.5v-11.4c0-1.4-1.1-2.5-2.5-2.5h-3.4c-1.4 0-2.5 1.1-2.5 2.5s1.1 2.5 2.5 2.5h.9v8.9c0 1.4 1.1 2.5 2.5 2.5z"/><path d="m90.4 256h125.2c5.8 0 10.4-4.7 10.4-10.4 0-2.9-2.4-5.2-5.3-5.2h-.2c.6-1.2.9-2.6.9-4v-78.6c0-5.1-4.1-9.2-9.2-9.2h-45.1c.2-2.4-1.1-4.7-3.3-5.6l-11.9-5.1c-.9-9.2 1-18.9 3.6-31.9 1.6-8.3 3.5-17.6 5.1-29.1 11.2-3.5 18.6-8.4 18.6-14.6 0-4.9-4.5-11.6-25.6-16.5-.1-.5-.2-.9-.3-1.3-2.7-11-6.2-21.8-10.3-32.4-1.8-4.8-5.5-8.7-10.3-10.6-4.4-1.8-9.4-1.6-13.6.4-2.7 1.3-5.7 2-8.8 2.1-3 0-6-.8-8.8-2.1-4.3-2-9.2-2.2-13.6-.4-4.8 2-8.5 5.8-10.3 10.6-4.1 10.6-7.5 21.4-10.3 32.4-.1.4-.2.8-.3 1.3-21.1 4.9-25.6 11.7-25.6 16.5 0 6.1 7.3 11 18.4 14.5 1.7 11.6 3.5 20.9 5.1 29.2 2.6 13.1 4.5 22.8 3.6 32.1l-11.7 5c-1.7.7-3 2.3-3.3 4.2l-6 1.5c-7.2 1.8-12.4 8.1-12.8 15.5l-4.6 72.1c-.3 4.7 3.3 8.8 8 9.1h.5 41.4v.2c0 5.6 4.6 10.3 10.4 10.3zm130.3-10.7c.1 0 .3.1.3.2 0 3-2.4 5.4-5.4 5.4h-125.2c-3 0-5.4-2.4-5.4-5.4 0-.1.1-.3.3-.2zm-8.5-91.8c2.3 0 4.2 1.9 4.2 4.2v78.6c-.1 2.2-1.9 4-4.2 4h-118.6c-2.2.1-4.1-1.7-4.2-4v-78.6c0-2.3 1.9-4.2 4.2-4.2zm-86.5-19.9c-9.1 5.9-20.9 6-30.2.3.5-1.6.7-3.3.7-4.9 9.2 4.3 19.8 4.2 28.8-.3 0 1.6.2 3.3.7 4.9zm-11.8-6.7c-2.3.3-4.6.3-6.8 0-6.9-1.1-13.2-4.3-18.2-9.1-7.9-7.5-12.4-17.8-12.6-28.6v-8.8c11.2 1.7 22.6 2.6 34 2.6s22.8-.8 34-2.6v8.8.1c-.2 10.7-4.7 20.8-12.3 28.3-4.9 4.9-11.3 8.2-18.1 9.3zm-21 11.3c10.9 6.7 24.7 6.6 35.5-.3.5.4 1 .8 1.5 1.2-.8.8-1.6 1.7-2.2 2.6l-4.5 6.7h-25.6l-4.5-6.7c-.6-.8-1.2-1.6-1.9-2.4.6-.2 1.1-.6 1.7-1.1zm69 9.2c.3.1.4.4.3.7-.1.1-.2.2-.3.3h-32.8l2.7-4c1-1.5 2.4-2.8 4-3.6 5.4-2.9 9.4-.5 12.8.9zm-11.3-42.5c-2.4 12.3-4.3 21.7-3.8 30.7-3.9-1.5-8.3-1.3-12.2.3l-1.7-.8c-3.7-2.2-2.7-5.8-2.8-9.4 11.3-7.8 19.2-22.2 19.3-36.4v-.1-9.7c2.1-.4 4.1-.9 6-1.3-1.6 10.4-3.3 19-4.8 26.7zm-68.3-91.2c1.3-3.5 4-6.4 7.5-7.8 1.4-.6 2.9-.9 4.4-.9 1.8 0 3.6.4 5.2 1.2 6.9 3.4 14.9 3.4 21.8 0 3-1.4 6.5-1.6 9.7-.3 3.5 1.5 6.2 4.3 7.5 7.8 3.8 9.9 7.1 20 9.7 30.3-5.4 3.5-19.3 6.8-37.7 6.8s-32.4-3.3-37.8-6.8c2.6-10.3 5.8-20.4 9.7-30.3zm-11.9 40.8c0-.1 0-.2 0-.4 0-.1 0-.3.1-.5v-.1c0-.2.1-.4.1-.6v-.1c0-.2.1-.5.1-.8v-.1c.1-.3.1-.6.2-.9 0-.1 0-.1 0-.2.1-.3.1-.6.2-1 0-.2.1-.3.1-.5 0-.1 0-.2.1-.3 7.6 4.1 22.2 6.7 39 6.7s31.3-2.6 39-6.7c0 .1 0 .2.1.3 0 .2.1.3.1.5.1.3.1.7.2 1v.2c.1.3.1.6.2.9v.1c.1.3.1.5.1.8v.1c0 .2.1.4.1.6v.1c0 .2.1.4.1.5v.4.2c0 3.1-14.1 9.3-39.9 9.3s-40-6.1-40-9.3c.1 0 .1-.1.1-.2zm-23.9 7.6c0-3.1 6-7.6 19.4-11.1v.1c-.1.3-.1.6-.2.9v.3c0 .3-.1.5-.1.7v.1c0 .3-.1.5-.1.8v.2.6c-.1 9.4 22.5 14.3 44.8 14.3s44.9-4.9 44.9-14.3c0-.2 0-.4 0-.6 0-.1 0-.1 0-.2 0-.2 0-.5-.1-.8v-.1c0-.2-.1-.5-.1-.7 0-.1 0-.2 0-.3 0-.3-.1-.6-.2-.9v-.1c13.4 3.4 19.4 7.9 19.4 11.1 0 6.7-21.1 11.7-27.8 12.9-11.9 2.1-24 3.1-36 3-12.1.1-24.1-.9-36-3-6.8-1.2-27.9-6.1-27.9-12.9zm18.6 16.1c2 .5 4.1 1 6.3 1.4v9.7c0 13.8 7.6 28.7 19.9 37-.1 1.8.5 6-1.6 8.2-.6.6-.4.3-3.1 1.8-4-1.9-8.7-2.1-12.8-.4.5-9.1-1.4-18.5-3.8-30.8-1.7-7.9-3.4-16.5-4.9-26.9zm-6.3 69.2 13-5.5c1.3-.4 11-6.5 17.1 2.6l2.8 4.2c-4.2 1-7.2 4.7-7.2 9v.9l-25.7-10.1c-.3-.1-.4-.4-.3-.7 0-.2.2-.3.3-.4zm4.6 92.9v-41.2c0-1.4-1.1-2.5-2.5-2.5s-2.5 1.1-2.5 2.5v41.2h-19.8c-2 0-3.6-1.6-3.6-3.6 0-.1 0-.2 0-.2l4.6-72.2c.3-5.2 3.9-9.7 9-11l6.3-1.6c.6.6 1.2 1 2 1.3l27.6 11v72.4c0 1.4.3 2.7.9 4z"/><path d="m153 209.8c1.4 0 2.5-1.1 2.5-2.5v-.8c0-1.4-1.1-2.5-2.5-2.5s-2.5 1.1-2.5 2.5v.8c0 1.4 1.1 2.5 2.5 2.5z"/><path d="m124.4 101.5c-1.1-.8-2.7-.5-3.5.7-4 6-12.1 7.5-18.1 3.5-1.4-.9-2.6-2.1-3.5-3.5-.8-1.2-2.3-1.5-3.5-.7s-1.5 2.3-.7 3.5v.1c5.6 8.3 16.8 10.4 25 4.9 1.9-1.3 3.6-2.9 4.9-4.9.9-1.3.6-2.8-.6-3.6z"/><path d="m130.6 221c1 1 2.6 1 3.5 0l6.8-6.8c-.1.4-.1.7-.2 1.1 0 4.7 3.8 8.6 8.6 8.6h7.4c4.7 0 8.6-3.8 8.6-8.6 0-.3 0-.6-.1-.9l6.6 6.6c1 1 2.5 1 3.5 0s1-2.5 0-3.5l-8.1-8.1c4-1.8 5.7-6.5 3.9-10.5-.1-.2-.2-.4-.3-.5-.4-.6-.5-1.3-.4-2 .7-3.5.2-7.2-1.3-10.5l6.2-6.2c1-1 .9-2.6 0-3.5-1-.9-2.5-.9-3.5 0l-5.4 5.4c-6.4-7.5-17.6-8.3-25.1-1.9-.7.6-1.3 1.2-1.9 1.9l-5.4-5.4c-1-1-2.6-.9-3.5 0-.9 1-.9 2.5 0 3.5l6.2 6.2c-1.5 3.3-1.9 6.9-1.3 10.5.1.7-.1 1.4-.4 2-2.1 3.8-.7 8.6 3.1 10.8.2.1.3.2.5.3l-8.1 8.1c-.9.8-.9 2.4.1 3.4zm26.1-2.1h-7.4c-1.8 0-3.4-1.4-3.6-3.2h14.5c-.1 1.8-1.6 3.2-3.5 3.2zm-17.3-18.1c.1-.2.3-.5.4-.7.4 3.1 3 5.5 6.2 5.5h.8c3 0 5.5-2.4 5.5-5.5v-1.8c0-3.4-2.8-6.2-6.2-6.2-2.4 0-4.5 1.3-5.6 3.5v-.1c-.1-.8-.2-1.5-.2-2.3 0-3.5 1.5-6.9 4.1-9.3 5.1-4.8 13.3-4.6 18.1.6 2.8 2.9 4 7 3.3 10.9-1.6-3-5.4-4.1-8.4-2.5-2 1.1-3.2 3.2-3.2 5.5v1.8c0 3 2.4 5.5 5.5 5.5h.8c3.1 0 5.6-2.2 6.1-5.2.1.2.2.3.2.5.8 1.4.3 3.2-1.1 4-.1 0-.2.1-.3.1-2 .8-3.4 2.5-3.9 4.6-.2.7-.8 1.2-1.5 1.2h-13.6c-.8 0-1.4-.5-1.5-1.3-.5-2-1.9-3.7-3.8-4.5-1.5-.7-2.1-2.4-1.5-3.9-.3-.3-.2-.4-.2-.4zm5.3-1.5v-1c0-.7.5-1.2 1.2-1.2s1.2.5 1.2 1.2v1.8c0 .3-.2.5-.5.5h-.8c-.5-.1-1.1-.6-1.1-1.3zm16.7-1v1c0 .7-.5 1.2-1.2 1.2h-.8c-.3 0-.5-.2-.5-.5v-1.8c0-.7.5-1.2 1.2-1.2s1.3.6 1.3 1.3z"/></g></g></svg>